<svg width="153" height="139" viewBox="0 0 153 139" fill="none" xmlns="http://www.w3.org/2000/svg">
<g style="mix-blend-mode:multiply" filter="url(#filter0_d_64_2)">
<path d="M15.5 35.0089V120.509V122.509L63.5 120.509V35.0089C61.6667 28.6755 54.2 15.9089 39 15.5089C23.8 15.1089 17 28.3422 15.5 35.0089Z" fill="#FF0000"/>
<path d="M15.5 35.0089V120.509V122.509L63.5 120.509V35.0089C61.6667 28.6755 54.2 15.9089 39 15.5089C23.8 15.1089 17 28.3422 15.5 35.0089Z" stroke="#FF0000"/>
</g>
<g style="mix-blend-mode:multiply" filter="url(#filter1_d_64_2)">
<path d="M95 39.8752V118.177V120.009L137 118.177V39.8752C135.396 34.0751 132.5 22.5089 117.5 21.0088C102.569 19.5157 96.3125 33.7698 95 39.8752Z" fill="#FF0000"/>
<path d="M95 39.8752V118.177V120.009L137 118.177V39.8752C135.396 34.0751 132.5 22.5089 117.5 21.0088C102.569 19.5157 96.3125 33.7698 95 39.8752Z" stroke="#FF0000"/>
</g>
<defs>
<filter id="filter0_d_64_2" x="0" y="0" width="79" height="138.03" filterUnits="userSpaceOnUse" color-interpolation-filters="sRGB">
<feFlood flood-opacity="0" result="BackgroundImageFix"/>
<feColorMatrix in="SourceAlpha" type="matrix" values="0 0 0 0 0 0 0 0 0 0 0 0 0 0 0 0 0 0 127 0" result="hardAlpha"/>
<feOffset/>
<feGaussianBlur stdDeviation="7.5"/>
<feComposite in2="hardAlpha" operator="out"/>
<feColorMatrix type="matrix" values="0 0 0 0 1 0 0 0 0 0 0 0 0 0 0 0 0 0 1 0"/>
<feBlend mode="normal" in2="BackgroundImageFix" result="effect1_dropShadow_64_2"/>
<feBlend mode="normal" in="SourceGraphic" in2="effect1_dropShadow_64_2" result="shape"/>
</filter>
<filter id="filter1_d_64_2" x="79.5" y="5.3999" width="73" height="130.131" filterUnits="userSpaceOnUse" color-interpolation-filters="sRGB">
<feFlood flood-opacity="0" result="BackgroundImageFix"/>
<feColorMatrix in="SourceAlpha" type="matrix" values="0 0 0 0 0 0 0 0 0 0 0 0 0 0 0 0 0 0 127 0" result="hardAlpha"/>
<feOffset/>
<feGaussianBlur stdDeviation="7.5"/>
<feComposite in2="hardAlpha" operator="out"/>
<feColorMatrix type="matrix" values="0 0 0 0 1 0 0 0 0 0 0 0 0 0 0 0 0 0 1 0"/>
<feBlend mode="normal" in2="BackgroundImageFix" result="effect1_dropShadow_64_2"/>
<feBlend mode="normal" in="SourceGraphic" in2="effect1_dropShadow_64_2" result="shape"/>
</filter>
</defs>
</svg>
